<svg width="90" height="24" viewBox="0 0 90 24" fill="none" xmlns="http://www.w3.org/2000/svg">
<path d="M48.144 17.912V19H42V17.912H44.456V10.096C44.456 9.86133 44.464 9.624 44.48 9.384L42.44 11.136C42.3707 11.1947 42.3013 11.232 42.232 11.248C42.1627 11.2587 42.0987 11.2587 42.04 11.248C41.9813 11.2373 41.9253 11.216 41.872 11.184C41.824 11.152 41.7867 11.1173 41.76 11.08L41.312 10.464L44.728 7.512H45.888V17.912H48.144Z" fill="#F9D03F"/>
<circle cx="78" cy="12" r="11.5" stroke="#F9D03F"/>
<rect x="77.25" y="6" width="1.5" height="12" rx="0.75" fill="#F9D03F"/>
<rect x="84" y="11.25" width="1.5" height="12" rx="0.75" transform="rotate(90 84 11.25)" fill="#F9D03F"/>
<circle cx="12" cy="12" r="11.5" stroke="#696969"/>
<rect x="18" y="11.25" width="1.5" height="12" rx="0.75" transform="rotate(90 18 11.25)" fill="#696969"/>
</svg>
